<?xml version="1.0" ?><svg viewBox="0 0 24 24" xmlns="http://www.w3.org/2000/svg"><defs><style>.cls-1{fill:#4d4d4d;}</style></defs><title/><g data-name="04" id="_04"><path class="cls-1" d="M15,0A9,9,0,0,0,7.34,13.71l0,0a9,9,0,0,0,2.86,2.87l0,0c.29.17.59.33.89.48h0A8.87,8.87,0,0,0,15,18,9,9,0,0,0,15,0Zm0,16a6.93,6.93,0,0,1-3.3-.83l-.16-.09-.07,0c-.24-.15-.47-.3-.69-.47l-.07-.05a7.16,7.16,0,0,1-1.23-1.23l-.05-.07A5.61,5.61,0,0,1,9,12.55l-.08-.13-.07-.11A7,7,0,1,1,15,16Z"/><path class="cls-1" d="M15,4V6a3,3,0,0,1,3,3h2A5,5,0,0,0,15,4Z"/><path class="cls-1" d="M3.58,22H3.41L2,20.59v-.17L6.5,16a11.37,11.37,0,0,1-1.14-1.69L0,19.58v1.83L2.59,24H4.42l5.29-5.36A11.37,11.37,0,0,1,8,17.5Z"/></g></svg>